<?xml version="1.0" encoding="UTF-8"?>
<svg width="205px" height="34px" viewBox="0 0 205 34" version="1.1" xmlns="http://www.w3.org/2000/svg" xmlns:xlink="http://www.w3.org/1999/xlink">
    <!-- Generator: Sketch 63.1 (92452) - https://sketch.com -->
    <title>Group 5</title>
    <desc>Created with Sketch.</desc>
    <g id="Page-6" stroke="none" stroke-width="1" fill="none" fill-rule="evenodd">
        <g id="Group-5">
            <g id="Group-4">
                <rect id="Rectangle" fill="#FFFFFF" x="5" y="5.00034843" width="24" height="25"></rect>
                <g id="Group" transform="translate(17.000000, 17.500348) scale(-1, 1) translate(-17.000000, -17.500348) translate(8.000000, 9.000348)" fill="#2665B0">
                    <rect id="Rectangle" x="0" y="0" width="17.5671224" height="16.8007438"></rect>
                </g>
                <path d="M34,0.000348426863 L34,34.0003484 L0,34.0003484 L0,0.000348426863 L34,0.000348426863 Z M29.0492505,4.87829275 L4.87794433,4.87829275 L4.87794433,29.049599 L29.0492505,29.049599 L29.0492505,4.87829275 Z" id="Combined-Shape" fill="#45AE41"></path>
                <path d="M25.444,25.5563484 L17.0001601,34.0003484 L8.556,25.5563484 L25.444,25.5563484 Z M25.556,8.55634843 L34,17.0005086 L25.556,25.4443484 L25.556,8.55634843 Z M8.443,8.55634843 L8.443,25.4423484 L1.42108547e-14,17.0001883 L8.443,8.55634843 Z M16.9998399,0.000348426864 L25.442,8.44334843 L8.556,8.44334843 L16.9998399,0.000348426864 Z" id="Combined-Shape" fill="#FABD14"></path>
            </g>
            <text id="VerificaIdade.dev" font-family="RalewayRoman-Black, Raleway" font-size="18" font-weight="800">
                <tspan x="49.312" y="23.0003484" fill="#FFFFFF">Verifica</tspan>
                <tspan x="116.11" y="23.0003484" fill="#FABD14">Idade</tspan>
                <tspan x="167.356" y="23.0003484" fill="#FFFFFF">.</tspan>
                <tspan x="171.928" y="23.0003484" fill="#45AE41">dev</tspan>
            </text>
        </g>
    </g>
</svg>