<?xml version="1.0" encoding="UTF-8"?>
<svg width="194px" height="40px" viewBox="0 0 194 40" version="1.1" xmlns="http://www.w3.org/2000/svg" xmlns:xlink="http://www.w3.org/1999/xlink">
    <!-- Generator: Sketch 63.1 (92452) - https://sketch.com -->
    <title>Group 3</title>
    <desc>Created with Sketch.</desc>
    <g id="Page-1" stroke="none" stroke-width="1" fill="none" fill-rule="evenodd">
        <g id="Group-3">
            <g id="Group-4-2" fill-rule="nonzero">
                <g id="Group-4">
                    <rect id="Rectangle" fill="#FFFFFF" x="6" y="11.0003484" width="24" height="25"></rect>
                    <g id="Group" transform="translate(20.000000, 20.000000) scale(-1, 1) translate(-20.000000, -20.000000) translate(10.000000, 10.000000)" fill="#2665B0">
                        <rect id="Rectangle" x="0" y="0" width="20" height="20"></rect>
                    </g>
                    <path d="M40,0 L40,40 L0,40 L0,0 L40,0 Z M34,5 L5,5 L5,34 L34,34 L34,5 Z" id="Combined-Shape" fill="#45AE41"></path>
                    <path d="M30,30 L20.0001896,40 L10,30 L30,30 Z M30,10 L40,20.0001897 L30,30 L30,10 Z M10,10 L10,30 L0,20.0009948 L10,10 Z M20.0009948,0 L30,10 L10,10 L20.0009948,0 Z" id="Combined-Shape" fill="#FABD14"></path>
                </g>
            </g>
            <g id="Group-2" transform="translate(52.000000, 9.000000)" font-family="Gabarito-ExtraBold, Gabarito" font-size="18" font-weight="700">
                <text id="Verifica" fill="#000000">
                    <tspan x="0" y="17">Verifica</tspan>
                </text>
                <text id="Idade" fill="#2665B0">
                    <tspan x="62" y="17">Idade</tspan>
                </text>
                <text id="." fill="#000000">
                    <tspan x="107.044" y="17">.</tspan>
                </text>
                <text id="dev" fill="#000000">
                    <tspan x="113" y="17">dev</tspan>
                </text>
            </g>
        </g>
    </g>
</svg>